<?xml version="1.0" encoding="utf-8"?>
<!DOCTYPE svg PUBLIC "-//W3C//DTD SVG 1.1//EN" "http://www.w3.org/Graphics/SVG/1.1/DTD/svg11.dtd">
<svg version="1.1" xmlns="http://www.w3.org/2000/svg" xmlns:xlink="http://www.w3.org/1999/xlink" x="0px" y="0px" width="250px"
	 height="250px" viewBox="0 0 250 250" style="enable-background:new 0 0 250 250;" xml:space="preserve">
<g id="uTorrent_Icon">
</g>
<g id="qBittorrent_Icon">
</g>
<g id="Transmission_Icon">
</g>
<g id="rTorrent_Icon">
	<path d="M221.5,0H28.5C12.8,0,0,13,0,28.9v192.1C0,237,12.8,250,28.5,250h192.9c15.8,0,28.5-13,28.5-28.9V28.9
		C250,13,237.2,0,221.5,0z M227.2,100.1c-8.1,11.3-27.3,25-47.8,20.5c-20.5-4.4-28-19.6-33.3-23.6c-5.3-4-11.5,2.5-12.9,9.3
		c-1.4,6.8,0.8,43.9,1.2,59.8c0.4,15.9,5.7,21.1,20.9,25.4c15.3,4.4,14.3,16.8,13.6,21.9c-0.7,5.1-9.4,19-32.2,20.9
		c-22.8,1.9-89.1,0.4-99.1-2.7c-10-3-20.9-10.4-20.5-24c0.5-13.5,12.5-14.6,21.3-27.4c8.7-12.8,6.9-22.9,6.9-22.9v-56.3
		c0,0,0-6.8-2.3-12.3c-2.3-5.4-10.8-5.6-19.8-13.3S22.3,55,26.9,50.8s19.3-11,43.7-16.8s47.8-8.5,53.4-7.4c5.6,1.1,8.5,3.8,8.5,9.3
		c0,5.5,0.5,15.2,2.5,18c2.1,2.8,8.3,4.9,14,0c5.8-4.9,15.3-24.1,31.8-26.4c16.5-2.3,33.1-0.2,46.9,18.7
		C241.7,65.1,235.3,88.8,227.2,100.1z"/>
</g>
<g id="DownloadStation_Icon">
</g>
</svg>
