<?xml version="1.0" encoding="utf-8"?>
<!-- Generator: Adobe Illustrator 16.0.0, SVG Export Plug-In . SVG Version: 6.00 Build 0)  -->
<svg version="1.1" xmlns="http://www.w3.org/2000/svg" xmlns:xlink="http://www.w3.org/1999/xlink" x="0px" y="0px" width="256px"
	 height="256px" viewBox="0 0 256 256" style="enable-background:new 0 0 256 256;" xml:space="preserve">
<style type="text/css">
<![CDATA[
	.st0{fill:none;}
]]>
</style>
<g id="uTorrent_Icon">
</g>
<g id="qBittorrent_Icon">
</g>
<g id="Transmission_Icon">
</g>
<g id="rTorrent_Icon">
</g>
<g id="DownloadStation_Icon">
</g>
<g id="Deluge_Icon">
	<g>
		<path class="st0" d="M175,212.9c-17.5-5.9-70.1-13.1-77.2-46.3c-6.3-29.7,7.9-55.4,37-56.9c28-1.5,46.5,36.4,47.1,38.6
			c0,0,7.1-2.3,2.3-15.9c-4.8-13.6-27-46.9-62-49.6c-28.9-2.2-48.1,21-60.4,39.5c-5.1,10.5-11.1,27.9-9.9,52.1
			c5.6,64.4,69.1,65.1,78.1,65.1c0.2,0,0.3,0,0.5,0c0.3,0,0.5,0,0.9,0c7.6,0,36.4-0.4,58.6-17.5C187.9,219.2,183.6,215.7,175,212.9z
			"/>
		<path class="st0" d="M192.9,219.5c-0.9,0.7-1.7,1.4-2.6,2.1C191.2,220.9,192.1,220.2,192.9,219.5z"/>
		<path d="M230.2,148.7c-5.3-23.1-17.4-39.4-19.8-42.4c-7.5-9.5-68.3-87.9-68.9-88.7L127.9,0.1l-13,18
			c-9.6,13.3-57.6,79.6-60.5,84.1l-0.3,0.5c-17.1,25.7-19.5,53.5-18.6,72.4l0,0.3l0,0.3c3.6,41.7,27.8,61.3,47.3,70.4
			c13.8,6.4,30.6,9.9,47.3,9.9h0.3h0.2h0.4l0.5,0c20.6,0,58.7-4.5,82.9-34.9C230.8,200.4,236.3,175.3,230.2,148.7z M130.6,239.4
			c-0.1,0-0.3,0-0.5,0c-9,0-72.4-0.6-78.1-65.1c-1.2-24.2,4.8-41.6,9.9-52.1c12.3-18.5,31.5-41.7,60.4-39.5
			c35,2.6,57.1,35.9,62,49.6c4.8,13.6-2.3,15.9-2.3,15.9c-0.6-2.1-19.1-40.1-47.1-38.6c-29.1,1.6-43.4,27.2-37,56.9
			c7,33.2,59.6,40.5,77.2,46.3c8.6,2.9,12.9,6.3,15,9c-22.2,17.1-51,17.5-58.6,17.5C131.1,239.4,130.8,239.4,130.6,239.4z"/>
	</g>
</g>
</svg>
