<?xml version="1.0" encoding="utf-8"?>
<!DOCTYPE svg PUBLIC "-//W3C//DTD SVG 1.1//EN" "http://www.w3.org/Graphics/SVG/1.1/DTD/svg11.dtd">
<svg version="1.1" xmlns="http://www.w3.org/2000/svg" xmlns:xlink="http://www.w3.org/1999/xlink" x="0px" y="0px" width="250px"
	 height="250px" viewBox="0 0 250 250" style="enable-background:new 0 0 250 250;" xml:space="preserve">
<g id="uTorrent_Icon">
</g>
<g id="qBittorrent_Icon">
	<g>
		<path d="M173.2,91.9c-8.9,0-16.9,5-24.2,14.9v41.3c6.8,7,14.7,10.6,23.6,10.6c6.9,0,12.4-2.9,16.4-8.6s6.1-14.2,6.1-25.5
			c0-10.7-1.9-18.8-5.8-24.4C185.5,94.7,180.1,91.9,173.2,91.9z"/>
		<path d="M53.4,100.5c-4.1,5.7-6.1,14.2-6.1,25.5c0,10.7,1.9,18.8,5.8,24.4c3.9,5.5,9.2,8.3,16.1,8.3c8.9,0,17-5,24.3-14.9v-41.3
			c-6.9-7-14.8-10.6-23.6-10.6C62.9,91.9,57.5,94.8,53.4,100.5z"/>
		<path d="M125,0C56,0,0,56,0,125c0,69,56,125,125,125c69,0,125-56,125-125C250,56,194,0,125,0z M109.3,202.2H93.4v-43.8
			c-7.1,8.3-15.7,12.5-25.7,12.5c-11.7,0-20.8-4-27.3-12.1c-6.4-8.1-9.7-19-9.7-32.7c0-14.2,3.6-25.4,10.8-33.7
			c7.2-8.3,16.3-12.4,27.2-12.4c9.7,0,17.9,2.9,24.7,8.7v-6.7h15.9V202.2z M200.8,158.4c-7.2,8.3-16.3,12.4-27.2,12.4
			c-9.7,0-17.9-2.9-24.6-8.8v6.7h-16V48.7h16v43.6c7.1-8.2,15.7-12.4,25.7-12.4c11.7,0,20.8,4,27.3,12.1c6.4,8.1,9.7,18.9,9.7,32.6
			C211.6,138.9,208,150.2,200.8,158.4z"/>
	</g>
</g>
<g id="Transmission_Icon">
</g>
<g id="rTorrent_Icon">
</g>
<g id="DownloadStation_Icon">
</g>
</svg>
