<?xml version="1.0" encoding="utf-8"?>
<!DOCTYPE svg PUBLIC "-//W3C//DTD SVG 1.1//EN" "http://www.w3.org/Graphics/SVG/1.1/DTD/svg11.dtd">
<svg version="1.1" xmlns="http://www.w3.org/2000/svg" xmlns:xlink="http://www.w3.org/1999/xlink" x="0px" y="0px" width="250px"
	 height="250px" viewBox="0 0 250 250" style="enable-background:new 0 0 250 250;" xml:space="preserve">
<g id="uTorrent_Icon">
</g>
<g id="qBittorrent_Icon">
</g>
<g id="Transmission_Icon">
	<g>
		<path d="M232.3,157.1c-1-1.5-62.9-94.9-64.7-97.6c-0.8-1.2-3.2-6.7-11.5-8.4c-8.3-1.7-12.3,0.7-12.3,0.7l-102.1,45
			c0,0-7.4,2.8-10.9,8.8c-3.5,6-2.9,10-1.9,12.4S80.1,238,80.7,239.5c0.6,1.5,2.7,6,10.7,9c8,3.1,16.3,0.5,17.1,0
			c0.9-0.5,116.2-64.9,118.7-66.4c2.5-1.5,6.2-4.2,7.1-11.7C235.4,163,233.3,158.7,232.3,157.1z M211.3,164.5
			c-0.7,5.4-4.8,7.4-4.8,7.4s-88.1,47.3-91.3,49c-3.2,1.7-10.5,1.9-13.3,1.2c-2.8-0.7-6.9-3.4-8.3-6.1c-1.4-2.7-42.9-91.4-43.7-93.1
			c-0.8-1.7-2.1-5.4-0.4-9.7s2.9-4.5,7.5-6.8c4.7-2.2,84.5-38.8,84.5-38.8s3.1-1.9,7.4-1.4c4.3,0.5,6.7,3.6,6.7,3.6
			s53.7,84.1,54.7,85.7C211.4,157.1,212,159.1,211.3,164.5z"/>
		<polygon id="Up_Down" points="111.7,172.1 157.4,185.3 167.6,145.4 155.8,150.7 134.2,115.2 142.8,111.3 102.8,99.1 89.2,132.9 
			103.7,127.7 125.3,165.7 		"/>
		<path id="Shaft" d="M105.1,130.4l11,19.2l27.6-13.3c0,0-5.9-5-17.6-95.2c0,0-7-27.4-17.8-34.3L74,17.7c0,0-2.9,0.5-2.1,4.8
			C72.6,26.7,103,106.5,105.1,130.4z"/>
		<path id="Handle_right" d="M73.4,21.9c0,0-22.7,6.8-46.9,30.7c0,0-0.2,1.2,0,3.6c0,0-5.5,2-11.1,9.3c0,0,1.2,7.5,7.9,17
			c0,0,8-0.9,14.5-3c0,0,1.4,1.2,3.6,3c0,0,23.9-0.9,51.4-13.9C92.6,68.4,92.5,37.7,73.4,21.9z"/>
		<path id="Handle_left" d="M109.8,7.8c0,0,12.7,14.2,15.1,33.3c0,0,2.4,9.6,3,12.6c0,0,26.7-10.8,40.8-26.4c0,0,1-21.4-10.1-27.2
			C158.5,0.1,134.3-1.3,109.8,7.8z"/>
	</g>
</g>
<g id="rTorrent_Icon">
</g>
<g id="DownloadStation_Icon">
</g>
</svg>
