<?xml version="1.0" encoding="utf-8"?>
<!DOCTYPE svg PUBLIC "-//W3C//DTD SVG 1.1//EN" "http://www.w3.org/Graphics/SVG/1.1/DTD/svg11.dtd">
<svg version="1.1" xmlns="http://www.w3.org/2000/svg" xmlns:xlink="http://www.w3.org/1999/xlink" x="0px" y="0px" width="256px"
	 height="256px" viewBox="0 0 256 256" style="enable-background:new 0 0 256 256;" xml:space="preserve">
<g id="uTorrent_Icon">
</g>
<g id="qBittorrent_Icon">
</g>
<g id="Transmission_Icon">
</g>
<g id="rTorrent_Icon">
</g>
<g id="DownloadStation_Icon">
</g>
<g id="Deluge_Icon">
	<path d="M230.2,148.6c-5.3-23.1-17.4-39.4-19.8-42.4c-7.5-9.5-68.3-87.9-68.9-88.7L127.9,0l-13,18c-9.6,13.3-57.6,79.7-60.5,84.1
		l-0.3,0.5c-17.1,25.7-19.5,53.5-18.6,72.4l0,0.3l0,0.3c3.6,41.7,27.8,61.3,47.4,70.4c13.8,6.4,30.6,9.9,47.3,9.9h0.3h0.2h0.4l0.5,0
		c20.6,0,58.8-4.5,82.9-34.9C230.8,200.3,236.3,175.3,230.2,148.6z M130.5,239.3c-0.1,0-0.3,0-0.5,0c-9,0-72.4-0.6-78.1-65.1
		c-1.7-34.4,11.1-55.1,15.4-61.6C79.8,96.3,97.4,80.1,122,81.9c35.6,2.7,58.1,36.5,63,50.4c4.9,13.9-2.3,16.2-2.3,16.2
		c-0.6-2.2-19.5-40.8-47.9-39.2c-29.6,1.6-44.1,27.6-37.7,57.9c7.2,33.7,60.6,41.2,78.5,47.1c7.4,2.5,11.6,5.3,14,7.8
		c-22.2,16.9-50.7,17.3-58.2,17.3C131.1,239.3,130.8,239.3,130.5,239.3z"/>
</g>
</svg>
