<?xml version="1.0" encoding="utf-8"?>
<!DOCTYPE svg PUBLIC "-//W3C//DTD SVG 1.1//EN" "http://www.w3.org/Graphics/SVG/1.1/DTD/svg11.dtd">
<svg version="1.1" xmlns="http://www.w3.org/2000/svg" xmlns:xlink="http://www.w3.org/1999/xlink" x="0px" y="0px" width="250px"
	 height="250px" viewBox="0 0 250 250" style="enable-background:new 0 0 250 250;" xml:space="preserve">
<g id="uTorrent_Icon">
	<g>
		<path d="M223.1,171.4c-16.9-0.3-30.9-13.3-30.9-13.3c-1.2,6.7-7.4,23.4-32.6,33.9c-25.2,10.5-43.5,0.5-43.5,0.5
			c5.5,14.9,20,46.5,25.1,57.5c47.3-6.1,86.3-38.9,101.7-82.8C237.8,169.5,230.9,171.5,223.1,171.4z"/>
		<path d="M85.7,244.6c-9.8-17.9-61.1-158-61.1-158c-5-10.7-0.2-12.2,2.5-12.9c2.7-0.6,26.2-5.3,33.9-6.7c7.8-1.4,10.5,2.5,11.9,6.2
			c1.4,3.7,13.6,35.2,23.5,58.3c9.8,23.1,35.5,45.1,61.7,29.8c26.2-15.3,16.3-33.5,14.7-36.9s-26.3-59.5-28.9-65.3
			c-2.6-5.7,0.1-7.2,2.7-7.7c2.6-0.5,21.1-4,28.3-5.3c7.2-1.3,9.5,2.9,11.2,6.5c1.7,3.6,27.5,59.5,29.7,63.8
			c2.1,4.3,10.2,25.1,24.3,24.4c4-0.2,7-0.9,9.2-1.8c0.5-4.5,0.7-9,0.7-13.6C250,56.2,194,0,125,0C56,0,0,56.2,0,125.5
			c0,55.6,35.9,102.7,85.8,119.2C85.7,244.7,85.7,244.6,85.7,244.6z"/>
	</g>
</g>
<g id="qBittorrent_Icon">
</g>
<g id="Transmission_Icon">
</g>
<g id="rTorrent_Icon">
</g>
<g id="DownloadStation_Icon">
</g>
</svg>
